<svg xmlns="http://www.w3.org/2000/svg" width="25" height="118" viewBox="0 0 25 118">
  <metadata><?xpacket begin="﻿" id="W5M0MpCehiHzreSzNTczkc9d"?>
<x:xmpmeta xmlns:x="adobe:ns:meta/" x:xmptk="Adobe XMP Core 5.6-c138 79.159824, 2016/09/14-01:09:01        ">
   <rdf:RDF xmlns:rdf="http://www.w3.org/1999/02/22-rdf-syntax-ns#">
      <rdf:Description rdf:about=""/>
   </rdf:RDF>
</x:xmpmeta>
                                                                                                    
                                                                                                    
                                                                                                    
                                                                                                    
                                                                                                    
                                                                                                    
                                                                                                    
                                                                                                    
                                                                                                    
                                                                                                    
                                                                                                    
                                                                                                    
                                                                                                    
                                                                                                    
                                                                                                    
                                                                                                    
                                                                                                    
                                                                                                    
                                                                                                    
                                                                                                    
                           
<?xpacket end="w"?></metadata>
<defs>
    <style>
      .cls-1 {
        fill: #78b660;
        fill-rule: evenodd;
      }
    </style>
  </defs>
  <path class="cls-1" d="M586.508,347.5h7.484c4.389,0,4.516-4.489,4.516-5v-33c0-.341.037-8.382,3.2-12.6a39.811,39.811,0,0,1,6.2-6.4,39.854,39.854,0,0,1-6.2-6.4c-3.164-4.218-3.2-12.26-3.2-12.6v-33c0-.512-0.127-5-4.516-5h-7.484a1,1,0,0,1,0-2h7.484c4.477,0,6.516,3.628,6.516,7v33c0,0.077.039,7.717,2.8,11.4a39.246,39.246,0,0,0,6.8,6.8,0.906,0.906,0,0,1,.117.131,0.8,0.8,0,0,1,.083.069c0.012,0.016.014,0.036,0.025,0.052a0.934,0.934,0,0,1,.089.186,1.034,1.034,0,0,1,.06.172,1.008,1.008,0,0,1,.009.19,0.994,0.994,0,0,1-.009.189,0.975,0.975,0,0,1-.06.172,0.909,0.909,0,0,1-.089.186c-0.011.017-.013,0.037-0.025,0.053a0.8,0.8,0,0,1-.083.069,0.9,0.9,0,0,1-.117.13,39.272,39.272,0,0,0-6.8,6.8c-2.761,3.683-2.8,11.324-2.8,11.4v33c0,3.371-2.039,7-6.516,7h-7.484A1,1,0,0,1,586.508,347.5Z" transform="translate(-585.5 -231.5)"/>
</svg>
